# xmcd
#
# Track frame offsets:
#	150
#	14988
#	30876
#	45024
#	62349
#	81628
#	98458
#	114116
#	130842
#	147755
#	163166
#	177852
#	194253
#	210769
#	228920
#
# Disc length: 3266 seconds
#
# Revision: 1
# Processed by: cddbd v1.5.1PL0 Copyright (c) Steve Scherf et al.
# Submitted via: audiograbber 1.82.02
#
DISCID=b00cc00f
DTITLE=Various Artist - Chartbusters 600002 Country Hits
DYEAR=1900
DGENRE=Karaoke
TTITLE0=Lone Star - No News
TTITLE1=Paul Brandt - My heart has a history
TTITLE2=Sammy Kershaw - Vidalia
TTITLE3=Sawyer Brown - Treat her right
TTITLE4=Tim McGraw - Maybe we should sleep on it
TTITLE5=Mark Chesnutt - Wrong place, wrong time
TTITLE6=Rhett Adkins - Don't get me started
TTITLE7=Paty Loveless - A thousand times a day
TTITLE8=Brooks and Dunn - I am that man
TTITLE9=Neal McCoy - Goin, going, gone
TTITLE10=Bryan White - That's another song
TTITLE11=Martina McBride - Swingin' doors
TTITLE12=Diamond Rio - It's all in your head
TTITLE13=Rhett Adkins - Love you back
TTITLE14=Mindy McCready - Ten thousand angels
EXTD=
EXTT0=
EXTT1=
EXTT2=
EXTT3=
EXTT4=
EXTT5=
EXTT6=
EXTT7=
EXTT8=
EXTT9=
EXTT10=
EXTT11=
EXTT12=
EXTT13=
EXTT14=
PLAYORDER=
